<svg width="566" height="264" viewBox="0 0 566 264" fill="none" xmlns="http://www.w3.org/2000/svg">
<rect width="264" height="264" fill="#603780"/>
<path d="M156.831 65.785H165.107V82.3388H156.831V107.169H148.554V132H140.277V148.554H132V173.384H123.723V198.215H115.446V206.492H107.169V198.215H98.8925V181.661H107.169V156.831H115.446V132H123.723V115.446H132V90.6157H140.277V65.785H148.554V57.5082H156.831V65.785ZM223.046 123.723V140.277H214.769V148.554H206.492V156.831H198.215V165.107H189.938V173.384H173.384V156.831H181.661V148.554H189.938V140.277H198.215V123.723H189.938V115.446H181.661V107.169H173.384V90.6157H189.938V98.8925H198.215V107.169H206.492V115.446H214.769V123.723H223.046ZM90.6157 90.6157V107.169H82.3388V115.446H74.0619V123.723H65.785V140.277H74.0619V148.554H82.3388V156.831H90.6157V173.384H74.0619V165.107H65.785V156.831H57.5082V148.554H49.2313V140.277H40.9544V123.723H49.2313V115.446H57.5082V107.169H65.785V98.8925H74.0619V90.6157H90.6157Z" fill="white"/>
<path d="M295.574 28.197H301.861V34.4839H295.574V28.197ZM301.861 28.197H308.147V34.4839H301.861V28.197ZM308.147 28.197H314.434V34.4839H308.147V28.197ZM314.434 28.197H320.721V34.4839H314.434V28.197ZM320.721 28.197H327.008V34.4839H320.721V28.197ZM327.008 28.197H333.295V34.4839H327.008V28.197ZM327.008 34.4839H333.295V40.7708H327.008V34.4839ZM333.295 34.4839H339.582V40.7708H333.295V34.4839ZM320.721 34.4839H327.008V40.7708H320.721V34.4839ZM314.434 34.4839H320.721V40.7708H314.434V34.4839ZM308.147 34.4839H314.434V40.7708H308.147V34.4839ZM301.861 34.4839H308.147V40.7708H301.861V34.4839ZM295.574 34.4839H301.861V40.7708H295.574V34.4839ZM289.287 40.7708H295.574V47.0576H289.287V40.7708ZM289.287 34.4839H295.574V40.7708H289.287V34.4839ZM283 40.7708H289.287V47.0576H283V40.7708ZM295.574 40.7708H301.861V47.0576H295.574V40.7708ZM301.861 40.7708H308.147V47.0576H301.861V40.7708ZM308.147 40.7708H314.434V47.0576H308.147V40.7708ZM314.434 40.7708H320.721V47.0576H314.434V40.7708ZM320.721 40.7708H327.008V47.0576H320.721V40.7708ZM327.008 40.7708H333.295V47.0576H327.008V40.7708ZM333.295 40.7708H339.582V47.0576H333.295V40.7708ZM339.582 40.7708H345.869V47.0576H339.582V40.7708ZM339.582 47.0576H345.869V53.3445H339.582V47.0576ZM333.295 47.0576H339.582V53.3445H333.295V47.0576ZM327.008 47.0576H333.295V53.3445H327.008V47.0576ZM320.721 47.0576H327.008V53.3445H320.721V47.0576ZM327.008 53.3445H333.295V59.6313H327.008V53.3445ZM339.582 53.3445H345.869V59.6313H339.582V53.3445ZM333.295 53.3445H339.582V59.6313H333.295V53.3445ZM339.582 91.0657H345.869V97.3525H339.582V91.0657ZM339.582 97.3525H345.869V103.639H339.582V97.3525ZM339.582 103.639H345.869V109.926H339.582V103.639ZM333.295 103.639H339.582V109.926H333.295V103.639ZM333.295 97.3525H339.582V103.639H333.295V97.3525ZM333.295 91.0657H339.582V97.3525H333.295V91.0657ZM327.008 91.0657H333.295V97.3525H327.008V91.0657ZM327.008 97.3525H333.295V103.639H327.008V97.3525ZM320.721 97.3525H327.008V103.639H320.721V97.3525ZM327.008 103.639H333.295V109.926H327.008V103.639ZM333.295 109.926H339.582V116.213H333.295V109.926ZM327.008 109.926H333.295V116.213H327.008V109.926ZM320.721 103.639H327.008V109.926H320.721V103.639ZM320.721 109.926H327.008V116.213H320.721V109.926ZM327.008 116.213H333.295V122.5H327.008V116.213ZM320.721 116.213H327.008V122.5H320.721V116.213ZM314.434 116.213H320.721V122.5H314.434V116.213ZM308.147 116.213H314.434V122.5H308.147V116.213ZM301.861 116.213H308.147V122.5H301.861V116.213ZM295.574 116.213H301.861V122.5H295.574V116.213ZM295.574 109.926H301.861V116.213H295.574V109.926ZM301.861 109.926H308.147V116.213H301.861V109.926ZM301.861 103.639H308.147V109.926H301.861V103.639ZM308.147 103.639H314.434V109.926H308.147V103.639ZM314.434 103.639H320.721V109.926H314.434V103.639ZM314.434 109.926H320.721V116.213H314.434V109.926ZM308.147 109.926H314.434V116.213H308.147V109.926ZM289.287 109.926H295.574V116.213H289.287V109.926ZM295.574 103.639H301.861V109.926H295.574V103.639ZM301.861 97.3525H308.147V103.639H301.861V97.3525ZM295.574 97.3525H301.861V103.639H295.574V97.3525ZM289.287 97.3525H295.574V103.639H289.287V97.3525ZM289.287 103.639H295.574V109.926H289.287V103.639ZM283 103.639H289.287V109.926H283V103.639ZM283 97.3525H289.287V103.639H283V97.3525ZM283 91.0657H289.287V97.3525H283V91.0657ZM283 84.7788H289.287V91.0657H283V84.7788ZM283 78.4919H289.287V84.7788H283V78.4919ZM283 72.2051H289.287V78.4919H283V72.2051ZM283 65.9182H289.287V72.2051H283V65.9182ZM283 59.6313H289.287V65.9182H283V59.6313ZM283 53.3445H289.287V59.6313H283V53.3445ZM283 47.0576H289.287V53.3445H283V47.0576ZM289.287 47.0576H295.574V53.3445H289.287V47.0576ZM295.574 47.0576H301.861V53.3445H295.574V47.0576ZM301.861 47.0576H308.147V53.3445H301.861V47.0576ZM295.574 53.3445H301.861V59.6313H295.574V53.3445ZM295.574 59.6313H301.861V65.9182H295.574V59.6313ZM295.574 65.9182H301.861V72.2051H295.574V65.9182ZM295.574 72.2051H301.861V78.4919H295.574V72.2051ZM295.574 78.4919H301.861V84.7788H295.574V78.4919ZM295.574 84.7788H301.861V91.0657H295.574V84.7788ZM295.574 91.0657H301.861V97.3525H295.574V91.0657ZM289.287 91.0657H295.574V97.3525H289.287V91.0657ZM289.287 84.7788H295.574V91.0657H289.287V84.7788ZM289.287 78.4919H295.574V84.7788H289.287V78.4919ZM289.287 72.2051H295.574V78.4919H289.287V72.2051ZM289.287 65.9182H295.574V72.2051H289.287V65.9182ZM289.287 59.6313H295.574V65.9182H289.287V59.6313ZM289.287 53.3445H295.574V59.6313H289.287V53.3445Z" fill="black"/>
<path d="M370.998 28.197H377.285V34.4839H370.998V28.197ZM377.285 28.197H383.571V34.4839H377.285V28.197ZM383.571 28.197H389.858V34.4839H383.571V28.197ZM389.858 28.197H396.145V34.4839H389.858V28.197ZM396.145 28.197H402.432V34.4839H396.145V28.197ZM402.432 28.197H408.719V34.4839H402.432V28.197ZM402.432 34.4839H408.719V40.7708H402.432V34.4839ZM408.719 34.4839H415.006V40.7708H408.719V34.4839ZM396.145 34.4839H402.432V40.7708H396.145V34.4839ZM389.858 34.4839H396.145V40.7708H389.858V34.4839ZM383.571 34.4839H389.858V40.7708H383.571V34.4839ZM377.285 34.4839H383.571V40.7708H377.285V34.4839ZM370.998 34.4839H377.285V40.7708H370.998V34.4839ZM364.711 40.7708H370.998V47.0576H364.711V40.7708ZM364.711 34.4839H370.998V40.7708H364.711V34.4839ZM358.424 40.7708H364.711V47.0576H358.424V40.7708ZM370.998 40.7708H377.285V47.0576H370.998V40.7708ZM377.285 40.7708H383.571V47.0576H377.285V40.7708ZM383.571 40.7708H389.858V47.0576H383.571V40.7708ZM389.858 40.7708H396.145V47.0576H389.858V40.7708ZM396.145 40.7708H402.432V47.0576H396.145V40.7708ZM402.432 40.7708H408.719V47.0576H402.432V40.7708ZM408.719 40.7708H415.006V47.0576H408.719V40.7708ZM415.006 40.7708H421.293V47.0576H415.006V40.7708ZM415.006 47.0576H421.293V53.3445H415.006V47.0576ZM408.719 47.0576H415.006V53.3445H408.719V47.0576ZM402.432 47.0576H408.719V53.3445H402.432V47.0576ZM396.145 47.0576H402.432V53.3445H396.145V47.0576ZM402.432 53.3445H408.719V59.6313H402.432V53.3445ZM402.432 59.6313H408.719V65.9182H402.432V59.6313ZM402.432 65.9182H408.719V72.2051H402.432V65.9182ZM402.432 72.2051H408.719V78.4919H402.432V72.2051ZM402.432 78.4919H408.719V84.7788H402.432V78.4919ZM408.719 72.2051H415.006V78.4919H408.719V72.2051ZM415.006 72.2051H421.293V78.4919H415.006V72.2051ZM415.006 65.9182H421.293V72.2051H415.006V65.9182ZM415.006 59.6313H421.293V65.9182H415.006V59.6313ZM415.006 53.3445H421.293V59.6313H415.006V53.3445ZM408.719 53.3445H415.006V59.6313H408.719V53.3445ZM408.719 59.6313H415.006V65.9182H408.719V59.6313ZM408.719 65.9182H415.006V72.2051H408.719V65.9182ZM408.719 78.4919H415.006V84.7788H408.719V78.4919ZM408.719 84.7788H415.006V91.0657H408.719V84.7788ZM415.006 84.7788H421.293V91.0657H415.006V84.7788ZM415.006 78.4919H421.293V84.7788H415.006V78.4919ZM415.006 91.0657H421.293V97.3525H415.006V91.0657ZM415.006 97.3525H421.293V103.639H415.006V97.3525ZM415.006 103.639H421.293V109.926H415.006V103.639ZM408.719 103.639H415.006V109.926H408.719V103.639ZM408.719 97.3525H415.006V103.639H408.719V97.3525ZM408.719 91.0657H415.006V97.3525H408.719V91.0657ZM402.432 84.7788H408.719V91.0657H402.432V84.7788ZM402.432 91.0657H408.719V97.3525H402.432V91.0657ZM402.432 97.3525H408.719V103.639H402.432V97.3525ZM396.145 97.3525H402.432V103.639H396.145V97.3525ZM402.432 103.639H408.719V109.926H402.432V103.639ZM408.719 109.926H415.006V116.213H408.719V109.926ZM402.432 109.926H408.719V116.213H402.432V109.926ZM396.145 103.639H402.432V109.926H396.145V103.639ZM396.145 109.926H402.432V116.213H396.145V109.926ZM402.432 116.213H408.719V122.5H402.432V116.213ZM396.145 116.213H402.432V122.5H396.145V116.213ZM389.858 116.213H396.145V122.5H389.858V116.213ZM383.571 116.213H389.858V122.5H383.571V116.213ZM377.285 116.213H383.571V122.5H377.285V116.213ZM370.998 116.213H377.285V122.5H370.998V116.213ZM370.998 109.926H377.285V116.213H370.998V109.926ZM377.285 109.926H383.571V116.213H377.285V109.926ZM377.285 103.639H383.571V109.926H377.285V103.639ZM383.571 103.639H389.858V109.926H383.571V103.639ZM389.858 103.639H396.145V109.926H389.858V103.639ZM389.858 109.926H396.145V116.213H389.858V109.926ZM383.571 109.926H389.858V116.213H383.571V109.926ZM364.711 109.926H370.998V116.213H364.711V109.926ZM370.998 103.639H377.285V109.926H370.998V103.639ZM377.285 97.3525H383.571V103.639H377.285V97.3525ZM370.998 97.3525H377.285V103.639H370.998V97.3525ZM364.711 97.3525H370.998V103.639H364.711V97.3525ZM364.711 103.639H370.998V109.926H364.711V103.639ZM358.424 103.639H364.711V109.926H358.424V103.639ZM358.424 97.3525H364.711V103.639H358.424V97.3525ZM358.424 91.0657H364.711V97.3525H358.424V91.0657ZM358.424 84.7788H364.711V91.0657H358.424V84.7788ZM358.424 78.4919H364.711V84.7788H358.424V78.4919ZM358.424 72.2051H364.711V78.4919H358.424V72.2051ZM358.424 65.9182H364.711V72.2051H358.424V65.9182ZM358.424 59.6313H364.711V65.9182H358.424V59.6313ZM358.424 53.3445H364.711V59.6313H358.424V53.3445ZM358.424 47.0576H364.711V53.3445H358.424V47.0576ZM364.711 47.0576H370.998V53.3445H364.711V47.0576ZM370.998 47.0576H377.285V53.3445H370.998V47.0576ZM377.285 47.0576H383.571V53.3445H377.285V47.0576ZM370.998 53.3445H377.285V59.6313H370.998V53.3445ZM370.998 59.6313H377.285V65.9182H370.998V59.6313ZM370.998 65.9182H377.285V72.2051H370.998V65.9182ZM370.998 72.2051H377.285V78.4919H370.998V72.2051ZM370.998 78.4919H377.285V84.7788H370.998V78.4919ZM370.998 84.7788H377.285V91.0657H370.998V84.7788ZM370.998 91.0657H377.285V97.3525H370.998V91.0657ZM364.711 91.0657H370.998V97.3525H364.711V91.0657ZM364.711 84.7788H370.998V91.0657H364.711V84.7788ZM364.711 78.4919H370.998V84.7788H364.711V78.4919ZM364.711 72.2051H370.998V78.4919H364.711V72.2051ZM364.711 65.9182H370.998V72.2051H364.711V65.9182ZM364.711 59.6313H370.998V65.9182H364.711V59.6313ZM364.711 53.3445H370.998V59.6313H364.711V53.3445Z" fill="black"/>
<path d="M446.422 28.197H452.709V34.4839H446.422V28.197ZM452.709 28.197H458.995V34.4839H452.709V28.197ZM458.995 28.197H465.282V34.4839H458.995V28.197ZM465.282 28.197H471.569V34.4839H465.282V28.197ZM471.569 28.197H477.856V34.4839H471.569V28.197ZM477.856 28.197H484.143V34.4839H477.856V28.197ZM477.856 34.4839H484.143V40.7708H477.856V34.4839ZM484.143 34.4839H490.43V40.7708H484.143V34.4839ZM471.569 34.4839H477.856V40.7708H471.569V34.4839ZM465.282 34.4839H471.569V40.7708H465.282V34.4839ZM458.995 34.4839H465.282V40.7708H458.995V34.4839ZM452.709 34.4839H458.995V40.7708H452.709V34.4839ZM446.422 34.4839H452.709V40.7708H446.422V34.4839ZM440.135 40.7708H446.422V47.0576H440.135V40.7708ZM440.135 34.4839H446.422V40.7708H440.135V34.4839ZM433.848 40.7708H440.135V47.0576H433.848V40.7708ZM446.422 40.7708H452.709V47.0576H446.422V40.7708ZM452.709 40.7708H458.995V47.0576H452.709V40.7708ZM458.995 40.7708H465.282V47.0576H458.995V40.7708ZM465.282 40.7708H471.569V47.0576H465.282V40.7708ZM471.569 40.7708H477.856V47.0576H471.569V40.7708ZM477.856 40.7708H484.143V47.0576H477.856V40.7708ZM484.143 40.7708H490.43V47.0576H484.143V40.7708ZM490.43 40.7708H496.717V47.0576H490.43V40.7708ZM490.43 47.0576H496.717V53.3445H490.43V47.0576ZM484.143 47.0576H490.43V53.3445H484.143V47.0576ZM477.856 47.0576H484.143V53.3445H477.856V47.0576ZM471.569 47.0576H477.856V53.3445H471.569V47.0576ZM477.856 53.3445H484.143V59.6313H477.856V53.3445ZM477.856 59.6313H484.143V65.9182H477.856V59.6313ZM477.856 65.9182H484.143V72.2051H477.856V65.9182ZM477.856 72.2051H484.143V78.4919H477.856V72.2051ZM477.856 78.4919H484.143V84.7788H477.856V78.4919ZM484.143 72.2051H490.43V78.4919H484.143V72.2051ZM490.43 72.2051H496.717V78.4919H490.43V72.2051ZM490.43 65.9182H496.717V72.2051H490.43V65.9182ZM490.43 59.6313H496.717V65.9182H490.43V59.6313ZM490.43 53.3445H496.717V59.6313H490.43V53.3445ZM484.143 53.3445H490.43V59.6313H484.143V53.3445ZM484.143 59.6313H490.43V65.9182H484.143V59.6313ZM484.143 65.9182H490.43V72.2051H484.143V65.9182ZM484.143 78.4919H490.43V84.7788H484.143V78.4919ZM484.143 84.7788H490.43V91.0657H484.143V84.7788ZM490.43 84.7788H496.717V91.0657H490.43V84.7788ZM490.43 78.4919H496.717V84.7788H490.43V78.4919ZM490.43 91.0657H496.717V97.3525H490.43V91.0657ZM490.43 97.3525H496.717V103.639H490.43V97.3525ZM490.43 103.639H496.717V109.926H490.43V103.639ZM484.143 103.639H490.43V109.926H484.143V103.639ZM484.143 97.3525H490.43V103.639H484.143V97.3525ZM484.143 91.0657H490.43V97.3525H484.143V91.0657ZM477.856 84.7788H484.143V91.0657H477.856V84.7788ZM477.856 91.0657H484.143V97.3525H477.856V91.0657ZM477.856 97.3525H484.143V103.639H477.856V97.3525ZM471.569 97.3525H477.856V103.639H471.569V97.3525ZM477.856 103.639H484.143V109.926H477.856V103.639ZM484.143 109.926H490.43V116.213H484.143V109.926ZM477.856 109.926H484.143V116.213H477.856V109.926ZM471.569 103.639H477.856V109.926H471.569V103.639ZM471.569 109.926H477.856V116.213H471.569V109.926ZM477.856 116.213H484.143V122.5H477.856V116.213ZM471.569 116.213H477.856V122.5H471.569V116.213ZM465.282 116.213H471.569V122.5H465.282V116.213ZM458.995 116.213H465.282V122.5H458.995V116.213ZM452.709 116.213H458.995V122.5H452.709V116.213ZM446.422 116.213H452.709V122.5H446.422V116.213ZM446.422 109.926H452.709V116.213H446.422V109.926ZM452.709 109.926H458.995V116.213H452.709V109.926ZM452.709 103.639H458.995V109.926H452.709V103.639ZM458.995 103.639H465.282V109.926H458.995V103.639ZM465.282 103.639H471.569V109.926H465.282V103.639ZM465.282 109.926H471.569V116.213H465.282V109.926ZM458.995 109.926H465.282V116.213H458.995V109.926ZM440.135 109.926H446.422V116.213H440.135V109.926ZM446.422 103.639H452.709V109.926H446.422V103.639ZM446.422 97.3525H452.709V103.639H446.422V97.3525ZM440.135 97.3525H446.422V103.639H440.135V97.3525ZM440.135 103.639H446.422V109.926H440.135V103.639ZM433.848 103.639H440.135V109.926H433.848V103.639ZM433.848 97.3525H440.135V103.639H433.848V97.3525ZM433.848 91.0657H440.135V97.3525H433.848V91.0657ZM433.848 84.7788H440.135V91.0657H433.848V84.7788ZM433.848 78.4919H440.135V84.7788H433.848V78.4919ZM433.848 72.2051H440.135V78.4919H433.848V72.2051ZM433.848 65.9182H440.135V72.2051H433.848V65.9182ZM433.848 59.6313H440.135V65.9182H433.848V59.6313ZM433.848 53.3445H440.135V59.6313H433.848V53.3445ZM433.848 47.0576H440.135V53.3445H433.848V47.0576ZM440.135 47.0576H446.422V53.3445H440.135V47.0576ZM446.422 47.0576H452.709V53.3445H446.422V47.0576ZM446.422 53.3445H452.709V59.6313H446.422V53.3445ZM446.422 59.6313H452.709V65.9182H446.422V59.6313ZM446.422 65.9182H452.709V72.2051H446.422V65.9182ZM446.422 72.2051H452.709V78.4919H446.422V72.2051ZM446.422 78.4919H452.709V84.7788H446.422V78.4919ZM446.422 84.7788H452.709V91.0657H446.422V84.7788ZM446.422 91.0657H452.709V97.3525H446.422V91.0657ZM440.135 91.0657H446.422V97.3525H440.135V91.0657ZM440.135 84.7788H446.422V91.0657H440.135V84.7788ZM440.135 78.4919H446.422V84.7788H440.135V78.4919ZM440.135 72.2051H446.422V78.4919H440.135V72.2051ZM440.135 65.9182H446.422V72.2051H440.135V65.9182ZM440.135 59.6313H446.422V65.9182H440.135V59.6313ZM440.135 53.3445H446.422V59.6313H440.135V53.3445ZM433.848 109.926H440.135V116.213H433.848V109.926ZM433.848 116.213H440.135V122.5H433.848V116.213ZM440.135 116.213H446.422V122.5H440.135V116.213ZM440.135 28.197H446.422V34.4839H440.135V28.197ZM433.848 28.197H440.135V34.4839H433.848V28.197ZM433.848 34.4839H440.135V40.7708H433.848V34.4839Z" fill="black"/>
<path d="M515.559 28.197H521.846V34.4839H515.559V28.197ZM515.559 34.4839H521.846V40.7708H515.559V34.4839ZM515.559 40.7708H521.846V47.0576H515.559V40.7708ZM515.559 47.0576H521.846V53.3445H515.559V47.0576ZM515.559 53.3445H521.846V59.6313H515.559V53.3445ZM515.559 59.6313H521.846V65.9182H515.559V59.6313ZM515.559 65.9182H521.846V72.2051H515.559V65.9182ZM515.559 72.2051H521.846V78.4919H515.559V72.2051ZM515.559 78.4919H521.846V84.7788H515.559V78.4919ZM515.559 84.7788H521.846V91.0657H515.559V84.7788ZM515.559 91.0657H521.846V97.3525H515.559V91.0657ZM515.559 97.3525H521.846V103.639H515.559V97.3525ZM515.559 103.639H521.846V109.926H515.559V103.639ZM515.559 109.926H521.846V116.213H515.559V109.926ZM515.559 116.213H521.846V122.5H515.559V116.213ZM509.272 116.213H515.559V122.5H509.272V116.213ZM509.272 109.926H515.559V116.213H509.272V109.926ZM509.272 103.639H515.559V109.926H509.272V103.639ZM509.272 34.4839H515.559V40.7708H509.272V34.4839ZM509.272 28.197H515.559V34.4839H509.272V28.197ZM509.272 40.7708H515.559V47.0576H509.272V40.7708ZM509.272 47.0576H515.559V53.3445H509.272V47.0576ZM509.272 53.3445H515.559V59.6313H509.272V53.3445ZM509.272 59.6313H515.559V65.9182H509.272V59.6313ZM509.272 65.9182H515.559V72.2051H509.272V65.9182ZM509.272 72.2051H515.559V78.4919H509.272V72.2051ZM509.272 78.4919H515.559V84.7788H509.272V78.4919ZM509.272 84.7788H515.559V91.0657H509.272V84.7788ZM509.272 91.0657H515.559V97.3525H509.272V91.0657ZM509.272 97.3525H515.559V103.639H509.272V97.3525ZM521.846 116.213H528.132V122.5H521.846V116.213ZM521.846 109.926H528.132V116.213H521.846V109.926ZM521.846 103.639H528.132V109.926H521.846V103.639ZM521.846 97.3525H528.132V103.639H521.846V97.3525ZM521.846 84.7788H528.132V91.0657H521.846V84.7788ZM521.846 78.4919H528.132V84.7788H521.846V78.4919ZM521.846 72.2051H528.132V78.4919H521.846V72.2051ZM521.846 65.9182H528.132V72.2051H521.846V65.9182ZM521.846 59.6313H528.132V65.9182H521.846V59.6313ZM521.846 53.3445H528.132V59.6313H521.846V53.3445ZM521.846 28.197H528.132V34.4839H521.846V28.197ZM521.846 34.4839H528.132V40.7708H521.846V34.4839ZM521.846 40.7708H528.132V47.0576H521.846V40.7708ZM521.846 47.0576H528.132V53.3445H521.846V47.0576ZM521.846 91.0657H528.132V97.3525H521.846V91.0657ZM528.132 116.213H534.419V122.5H528.132V116.213ZM534.419 116.213H540.706V122.5H534.419V116.213ZM540.706 116.213H546.993V122.5H540.706V116.213ZM540.706 109.926H546.993V116.213H540.706V109.926ZM540.706 103.639H546.993V109.926H540.706V103.639ZM534.419 103.639H540.706V109.926H534.419V103.639ZM534.419 109.926H540.706V116.213H534.419V109.926ZM528.132 109.926H534.419V116.213H528.132V109.926ZM528.132 103.639H534.419V109.926H528.132V103.639ZM546.993 103.639H553.28V109.926H546.993V103.639ZM546.993 109.926H553.28V116.213H546.993V109.926ZM546.993 116.213H553.28V122.5H546.993V116.213ZM553.28 116.213H559.567V122.5H553.28V116.213ZM553.28 109.926H559.567V116.213H553.28V109.926ZM553.28 103.639H559.567V109.926H553.28V103.639ZM559.567 103.639H565.854V109.926H559.567V103.639ZM559.567 109.926H565.854V116.213H559.567V109.926ZM559.567 116.213H565.854V122.5H559.567V116.213ZM528.132 28.197H534.419V34.4839H528.132V28.197ZM534.419 28.197H540.706V34.4839H534.419V28.197ZM540.706 28.197H546.993V34.4839H540.706V28.197ZM546.993 28.197H553.28V34.4839H546.993V28.197ZM553.28 28.197H559.567V34.4839H553.28V28.197ZM559.567 28.197H565.854V34.4839H559.567V28.197ZM559.567 34.4839H565.854V40.7708H559.567V34.4839ZM559.567 40.7708H565.854V47.0576H559.567V40.7708ZM553.28 40.7708H559.567V47.0576H553.28V40.7708ZM546.993 40.7708H553.28V47.0576H546.993V40.7708ZM540.706 40.7708H546.993V47.0576H540.706V40.7708ZM534.419 40.7708H540.706V47.0576H534.419V40.7708ZM534.419 34.4839H540.706V40.7708H534.419V34.4839ZM528.132 34.4839H534.419V40.7708H528.132V34.4839ZM528.132 40.7708H534.419V47.0576H528.132V40.7708ZM540.706 34.4839H546.993V40.7708H540.706V34.4839ZM546.993 34.4839H553.28V40.7708H546.993V34.4839ZM553.28 34.4839H559.567V40.7708H553.28V34.4839ZM528.132 65.9182H534.419V72.2051H528.132V65.9182ZM528.132 72.2051H534.419V78.4919H528.132V72.2051ZM528.132 78.4919H534.419V84.7788H528.132V78.4919ZM534.419 78.4919H540.706V84.7788H534.419V78.4919ZM534.419 72.2051H540.706V78.4919H534.419V72.2051ZM534.419 65.9182H540.706V72.2051H534.419V65.9182ZM540.706 65.9182H546.993V72.2051H540.706V65.9182ZM540.706 72.2051H546.993V78.4919H540.706V72.2051ZM546.993 72.2051H553.28V78.4919H546.993V72.2051ZM546.993 65.9182H553.28V72.2051H546.993V65.9182ZM546.993 78.4919H553.28V84.7788H546.993V78.4919ZM540.706 78.4919H546.993V84.7788H540.706V78.4919ZM553.28 65.9182H559.567V72.2051H553.28V65.9182ZM553.28 72.2051H559.567V78.4919H553.28V72.2051ZM553.28 78.4919H559.567V84.7788H553.28V78.4919Z" fill="black"/>
<path d="M283 141.5H289.287V147.787H283V141.5ZM289.287 141.5H295.574V147.787H289.287V141.5ZM295.574 141.5H301.861V147.787H295.574V141.5ZM301.861 141.5H308.147V147.787H301.861V141.5ZM308.147 141.5H314.434V147.787H308.147V141.5ZM314.434 141.5H320.721V147.787H314.434V141.5ZM320.721 141.5H327.008V147.787H320.721V141.5ZM327.008 141.5H333.295V147.787H327.008V141.5ZM327.008 147.787H333.295V154.074H327.008V147.787ZM333.295 147.787H339.582V154.074H333.295V147.787ZM320.721 147.787H327.008V154.074H320.721V147.787ZM314.434 147.787H320.721V154.074H314.434V147.787ZM308.147 147.787H314.434V154.074H308.147V147.787ZM301.861 147.787H308.147V154.074H301.861V147.787ZM295.574 147.787H301.861V154.074H295.574V147.787ZM289.287 147.787H295.574V154.074H289.287V147.787ZM283 147.787H289.287V154.074H283V147.787ZM283 154.074H289.287V160.361H283V154.074ZM289.287 154.074H295.574V160.361H289.287V154.074ZM295.574 154.074H301.861V160.361H295.574V154.074ZM301.861 154.074H308.147V160.361H301.861V154.074ZM314.434 154.074H320.721V160.361H314.434V154.074ZM320.721 154.074H327.008V160.361H320.721V154.074ZM327.008 154.074H333.295V160.361H327.008V154.074ZM333.295 154.074H339.582V160.361H333.295V154.074ZM339.582 154.074H345.869V160.361H339.582V154.074ZM308.147 154.074H314.434V160.361H308.147V154.074ZM320.721 160.361H327.008V166.647H320.721V160.361ZM327.008 160.361H333.295V166.647H327.008V160.361ZM339.582 160.361H345.869V166.647H339.582V160.361ZM333.295 160.361H339.582V166.647H333.295V160.361ZM333.295 166.647H339.582V172.934H333.295V166.647ZM333.295 179.221H339.582V185.508H333.295V179.221ZM339.582 179.221H345.869V185.508H339.582V179.221ZM339.582 185.508H345.869V191.795H339.582V185.508ZM339.582 166.647H345.869V172.934H339.582V166.647ZM327.008 179.221H333.295V185.508H327.008V179.221ZM327.008 166.647H333.295V172.934H327.008V166.647ZM320.721 179.221H327.008V185.508H320.721V179.221ZM327.008 185.508H333.295V191.795H327.008V185.508ZM333.295 185.508H339.582V191.795H333.295V185.508ZM333.295 191.795H339.582V198.082H333.295V191.795ZM320.721 198.082H327.008V204.369H320.721V198.082ZM327.008 198.082H333.295V204.369H327.008V198.082ZM327.008 191.795H333.295V198.082H327.008V191.795ZM320.721 191.795H327.008V198.082H320.721V191.795ZM320.721 185.508H327.008V191.795H320.721V185.508ZM314.434 198.082H320.721V204.369H314.434V198.082ZM308.147 198.082H314.434V204.369H308.147V198.082ZM301.861 198.082H308.147V204.369H301.861V198.082ZM301.861 191.795H308.147V198.082H301.861V191.795ZM308.147 191.795H314.434V198.082H308.147V191.795ZM308.147 185.508H314.434V191.795H308.147V185.508ZM314.434 185.508H320.721V191.795H314.434V185.508ZM301.861 185.508H308.147V191.795H301.861V185.508ZM314.434 191.795H320.721V198.082H314.434V191.795ZM289.287 160.361H295.574V166.647H289.287V160.361ZM295.574 160.361H301.861V166.647H295.574V160.361ZM295.574 166.647H301.861V172.934H295.574V166.647ZM295.574 172.934H301.861V179.221H295.574V172.934ZM295.574 179.221H301.861V185.508H295.574V179.221ZM289.287 179.221H295.574V185.508H289.287V179.221ZM283 179.221H289.287V185.508H283V179.221ZM283 172.934H289.287V179.221H283V172.934ZM283 166.647H289.287V172.934H283V166.647ZM283 160.361H289.287V166.647H283V160.361ZM289.287 172.934H295.574V179.221H289.287V172.934ZM289.287 185.508H295.574V191.795H289.287V185.508ZM289.287 166.647H295.574V172.934H289.287V166.647ZM283 185.508H289.287V191.795H283V185.508ZM283 191.795H289.287V198.082H283V191.795ZM289.287 191.795H295.574V198.082H289.287V191.795ZM295.574 185.508H301.861V191.795H295.574V185.508ZM295.574 191.795H301.861V198.082H295.574V191.795ZM295.574 198.082H301.861V204.369H295.574V198.082ZM295.574 204.369H301.861V210.656H295.574V204.369ZM295.574 210.656H301.861V216.942H295.574V210.656ZM295.574 216.942H301.861V223.229H295.574V216.942ZM295.574 229.516H301.861V235.803H295.574V229.516ZM289.287 229.516H295.574V235.803H289.287V229.516ZM283 229.516H289.287V235.803H283V229.516ZM283 223.229H289.287V229.516H283V223.229ZM283 216.942H289.287V223.229H283V216.942ZM283 210.656H289.287V216.942H283V210.656ZM283 204.369H289.287V210.656H283V204.369ZM283 198.082H289.287V204.369H283V198.082ZM289.287 198.082H295.574V204.369H289.287V198.082ZM289.287 204.369H295.574V210.656H289.287V204.369ZM289.287 210.656H295.574V216.942H289.287V210.656ZM289.287 216.942H295.574V223.229H289.287V216.942ZM289.287 223.229H295.574V229.516H289.287V223.229ZM295.574 223.229H301.861V229.516H295.574V223.229ZM339.582 172.934H345.869V179.221H339.582V172.934ZM333.295 172.934H339.582V179.221H333.295V172.934ZM327.008 172.934H333.295V179.221H327.008V172.934ZM339.582 229.516H345.869V235.803H339.582V229.516ZM339.582 223.229H345.869V229.516H339.582V223.229ZM339.582 216.942H345.869V223.229H339.582V216.942ZM333.295 216.942H339.582V223.229H333.295V216.942ZM327.008 216.942H333.295V223.229H327.008V216.942ZM327.008 223.229H333.295V229.516H327.008V223.229ZM327.008 229.516H333.295V235.803H327.008V229.516ZM333.295 229.516H339.582V235.803H333.295V229.516ZM333.295 223.229H339.582V229.516H333.295V223.229ZM327.008 210.656H333.295V216.942H327.008V210.656ZM327.008 204.369H333.295V210.656H327.008V204.369ZM320.721 204.369H327.008V210.656H320.721V204.369ZM339.582 210.656H345.869V216.942H339.582V210.656ZM339.582 204.369H345.869V210.656H339.582V204.369ZM333.295 210.656H339.582V216.942H333.295V210.656ZM333.295 204.369H339.582V210.656H333.295V204.369ZM333.295 198.082H339.582V204.369H333.295V198.082Z" fill="black"/>
<path d="M367.112 141.651H372.712V147.918H367.112V141.651ZM372.712 141.651H378.312V147.918H372.712V141.651ZM378.312 141.651H383.912V147.918H378.312V141.651ZM383.912 141.651H389.512V147.918H383.912V141.651ZM389.512 141.651H395.112V147.918H389.512V141.651ZM395.112 141.651H400.712V147.918H395.112V141.651ZM395.112 147.918H400.712V154.185H395.112V147.918ZM400.712 147.918H406.312V154.185H400.712V147.918ZM389.512 147.918H395.112V154.185H389.512V147.918ZM383.912 147.918H389.512V154.185H383.912V147.918ZM378.312 147.918H383.912V154.185H378.312V147.918ZM372.712 147.918H378.312V154.185H372.712V147.918ZM367.112 147.918H372.712V154.185H367.112V147.918ZM361.512 154.185H367.112V160.451H361.512V154.185ZM361.512 147.918H367.112V154.185H361.512V147.918ZM355.912 154.185H361.512V160.451H355.912V154.185ZM367.112 154.185H372.712V160.451H367.112V154.185ZM372.712 154.185H378.312V160.451H372.712V154.185ZM378.312 154.185H383.912V160.451H378.312V154.185ZM383.912 154.185H389.512V160.451H383.912V154.185ZM389.512 154.185H395.112V160.451H389.512V154.185ZM395.112 154.185H400.712V160.451H395.112V154.185ZM400.712 154.185H406.312V160.451H400.712V154.185ZM406.312 154.185H411.912V160.451H406.312V154.185ZM406.312 160.451H411.912V166.718H406.312V160.451ZM400.712 160.451H406.312V166.718H400.712V160.451ZM395.112 160.451H400.712V166.718H395.112V160.451ZM389.512 160.451H395.112V166.718H389.512V160.451ZM395.112 166.718H400.712V172.985H395.112V166.718ZM395.112 172.985H400.712V179.251H395.112V172.985ZM395.112 179.251H400.712V185.518H395.112V179.251ZM395.112 185.518H400.712V191.785H395.112V185.518ZM395.112 191.785H400.712V198.051H395.112V191.785ZM400.712 185.518H406.312V191.785H400.712V185.518ZM406.312 185.518H411.912V191.785H406.312V185.518ZM406.312 179.251H411.912V185.518H406.312V179.251ZM406.312 172.985H411.912V179.251H406.312V172.985ZM406.312 166.718H411.912V172.985H406.312V166.718ZM400.712 166.718H406.312V172.985H400.712V166.718ZM400.712 172.985H406.312V179.251H400.712V172.985ZM400.712 179.251H406.312V185.518H400.712V179.251ZM400.712 191.785H406.312V198.051H400.712V191.785ZM400.712 198.051H406.312V204.318H400.712V198.051ZM406.312 198.051H411.912V204.318H406.312V198.051ZM406.312 191.785H411.912V198.051H406.312V191.785ZM406.312 204.318H411.912V210.585H406.312V204.318ZM406.312 210.585H411.912V216.851H406.312V210.585ZM406.312 216.851H411.912V223.118H406.312V216.851ZM400.712 216.851H406.312V223.118H400.712V216.851ZM400.712 210.585H406.312V216.851H400.712V210.585ZM400.712 204.318H406.312V210.585H400.712V204.318ZM395.112 198.051H400.712V204.318H395.112V198.051ZM395.112 204.318H400.712V210.585H395.112V204.318ZM395.112 210.585H400.712V216.851H395.112V210.585ZM389.512 210.585H395.112V216.851H389.512V210.585ZM395.112 216.851H400.712V223.118H395.112V216.851ZM400.712 223.118H406.312V229.385H400.712V223.118ZM395.112 223.118H400.712V229.385H395.112V223.118ZM389.512 216.851H395.112V223.118H389.512V216.851ZM389.512 223.118H395.112V229.385H389.512V223.118ZM395.112 229.385H400.712V235.651H395.112V229.385ZM389.512 229.385H395.112V235.651H389.512V229.385ZM383.912 229.385H389.512V235.651H383.912V229.385ZM378.312 229.385H383.912V235.651H378.312V229.385ZM372.712 229.385H378.312V235.651H372.712V229.385ZM367.112 229.385H372.712V235.651H367.112V229.385ZM367.112 223.118H372.712V229.385H367.112V223.118ZM372.712 223.118H378.312V229.385H372.712V223.118ZM372.712 216.851H378.312V223.118H372.712V216.851ZM378.312 216.851H383.912V223.118H378.312V216.851ZM383.912 216.851H389.512V223.118H383.912V216.851ZM383.912 223.118H389.512V229.385H383.912V223.118ZM378.312 223.118H383.912V229.385H378.312V223.118ZM361.512 223.118H367.112V229.385H361.512V223.118ZM367.112 216.851H372.712V223.118H367.112V216.851ZM372.712 210.585H378.312V216.851H372.712V210.585ZM367.112 210.585H372.712V216.851H367.112V210.585ZM361.512 210.585H367.112V216.851H361.512V210.585ZM361.512 216.851H367.112V223.118H361.512V216.851ZM355.912 216.851H361.512V223.118H355.912V216.851ZM355.912 210.585H361.512V216.851H355.912V210.585ZM355.912 204.318H361.512V210.585H355.912V204.318ZM355.912 198.051H361.512V204.318H355.912V198.051ZM355.912 191.785H361.512V198.051H355.912V191.785ZM355.912 185.518H361.512V191.785H355.912V185.518ZM355.912 179.251H361.512V185.518H355.912V179.251ZM355.912 172.985H361.512V179.251H355.912V172.985ZM355.912 166.718H361.512V172.985H355.912V166.718ZM355.912 160.451H361.512V166.718H355.912V160.451ZM361.512 160.451H367.112V166.718H361.512V160.451ZM367.112 160.451H372.712V166.718H367.112V160.451ZM372.712 160.451H378.312V166.718H372.712V160.451ZM367.112 166.718H372.712V172.985H367.112V166.718ZM367.112 172.985H372.712V179.251H367.112V172.985ZM367.112 179.251H372.712V185.518H367.112V179.251ZM367.112 185.518H372.712V191.785H367.112V185.518ZM367.112 191.785H372.712V198.051H367.112V191.785ZM367.112 198.051H372.712V204.318H367.112V198.051ZM367.112 204.318H372.712V210.585H367.112V204.318ZM361.512 204.318H367.112V210.585H361.512V204.318ZM361.512 198.051H367.112V204.318H361.512V198.051ZM361.512 191.785H367.112V198.051H361.512V191.785ZM361.512 185.518H367.112V191.785H361.512V185.518ZM361.512 179.251H367.112V185.518H361.512V179.251ZM361.512 172.985H367.112V179.251H361.512V172.985ZM361.512 166.718H367.112V172.985H361.512V166.718Z" fill="black"/>
<path d="M433.156 141.651H438.756V147.918H433.156V141.651ZM438.756 141.651H444.356V147.918H438.756V141.651ZM444.356 141.651H449.956V147.918H444.356V141.651ZM449.956 141.651H455.556V147.918H449.956V141.651ZM455.556 141.651H461.156V147.918H455.556V141.651ZM461.156 141.651H466.756V147.918H461.156V141.651ZM461.156 147.918H466.756V154.185H461.156V147.918ZM466.756 147.918H472.356V154.185H466.756V147.918ZM455.556 147.918H461.156V154.185H455.556V147.918ZM449.956 147.918H455.556V154.185H449.956V147.918ZM444.356 147.918H449.956V154.185H444.356V147.918ZM438.756 147.918H444.356V154.185H438.756V147.918ZM433.156 147.918H438.756V154.185H433.156V147.918ZM427.556 154.185H433.156V160.451H427.556V154.185ZM427.556 147.918H433.156V154.185H427.556V147.918ZM421.956 154.185H427.556V160.451H421.956V154.185ZM433.156 154.185H438.756V160.451H433.156V154.185ZM438.756 154.185H444.356V160.451H438.756V154.185ZM444.356 154.185H449.956V160.451H444.356V154.185ZM449.956 154.185H455.556V160.451H449.956V154.185ZM455.556 154.185H461.156V160.451H455.556V154.185ZM461.156 154.185H466.756V160.451H461.156V154.185ZM466.756 154.185H472.356V160.451H466.756V154.185ZM472.356 154.185H477.956V160.451H472.356V154.185ZM472.356 160.451H477.956V166.718H472.356V160.451ZM466.756 160.451H472.356V166.718H466.756V160.451ZM461.156 160.451H466.756V166.718H461.156V160.451ZM455.556 160.451H461.156V166.718H455.556V160.451ZM461.156 166.718H466.756V172.985H461.156V166.718ZM461.156 172.985H466.756V179.251H461.156V172.985ZM461.156 179.251H466.756V185.518H461.156V179.251ZM461.156 185.518H466.756V191.785H461.156V185.518ZM461.156 191.785H466.756V198.051H461.156V191.785ZM466.756 185.518H472.356V191.785H466.756V185.518ZM472.356 185.518H477.956V191.785H472.356V185.518ZM472.356 179.251H477.956V185.518H472.356V179.251ZM472.356 172.985H477.956V179.251H472.356V172.985ZM472.356 166.718H477.956V172.985H472.356V166.718ZM466.756 166.718H472.356V172.985H466.756V166.718ZM466.756 172.985H472.356V179.251H466.756V172.985ZM466.756 179.251H472.356V185.518H466.756V179.251ZM466.756 191.785H472.356V198.051H466.756V191.785ZM466.756 198.051H472.356V204.318H466.756V198.051ZM472.356 198.051H477.956V204.318H472.356V198.051ZM472.356 191.785H477.956V198.051H472.356V191.785ZM472.356 204.318H477.956V210.585H472.356V204.318ZM472.356 210.585H477.956V216.851H472.356V210.585ZM472.356 216.851H477.956V223.118H472.356V216.851ZM466.756 216.851H472.356V223.118H466.756V216.851ZM466.756 210.585H472.356V216.851H466.756V210.585ZM466.756 204.318H472.356V210.585H466.756V204.318ZM461.156 198.051H466.756V204.318H461.156V198.051ZM461.156 204.318H466.756V210.585H461.156V204.318ZM461.156 210.585H466.756V216.851H461.156V210.585ZM455.556 210.585H461.156V216.851H455.556V210.585ZM461.156 216.851H466.756V223.118H461.156V216.851ZM466.756 223.118H472.356V229.385H466.756V223.118ZM461.156 223.118H466.756V229.385H461.156V223.118ZM455.556 216.851H461.156V223.118H455.556V216.851ZM455.556 223.118H461.156V229.385H455.556V223.118ZM461.156 229.385H466.756V235.651H461.156V229.385ZM455.556 229.385H461.156V235.651H455.556V229.385ZM449.956 229.385H455.556V235.651H449.956V229.385ZM444.356 229.385H449.956V235.651H444.356V229.385ZM438.756 229.385H444.356V235.651H438.756V229.385ZM433.156 229.385H438.756V235.651H433.156V229.385ZM433.156 223.118H438.756V229.385H433.156V223.118ZM438.756 223.118H444.356V229.385H438.756V223.118ZM438.756 216.851H444.356V223.118H438.756V216.851ZM444.356 216.851H449.956V223.118H444.356V216.851ZM449.956 216.851H455.556V223.118H449.956V216.851ZM449.956 223.118H455.556V229.385H449.956V223.118ZM444.356 223.118H449.956V229.385H444.356V223.118ZM427.556 223.118H433.156V229.385H427.556V223.118ZM433.156 216.851H438.756V223.118H433.156V216.851ZM438.756 210.585H444.356V216.851H438.756V210.585ZM433.156 210.585H438.756V216.851H433.156V210.585ZM427.556 210.585H433.156V216.851H427.556V210.585ZM427.556 216.851H433.156V223.118H427.556V216.851ZM421.956 216.851H427.556V223.118H421.956V216.851ZM421.956 210.585H427.556V216.851H421.956V210.585ZM421.956 204.318H427.556V210.585H421.956V204.318ZM421.956 198.051H427.556V204.318H421.956V198.051ZM421.956 191.785H427.556V198.051H421.956V191.785ZM421.956 185.518H427.556V191.785H421.956V185.518ZM421.956 179.251H427.556V185.518H421.956V179.251ZM421.956 172.985H427.556V179.251H421.956V172.985ZM421.956 166.718H427.556V172.985H421.956V166.718ZM421.956 160.451H427.556V166.718H421.956V160.451ZM427.556 160.451H433.156V166.718H427.556V160.451ZM433.156 160.451H438.756V166.718H433.156V160.451ZM438.756 160.451H444.356V166.718H438.756V160.451ZM433.156 166.718H438.756V172.985H433.156V166.718ZM433.156 172.985H438.756V179.251H433.156V172.985ZM433.156 179.251H438.756V185.518H433.156V179.251ZM433.156 185.518H438.756V191.785H433.156V185.518ZM433.156 191.785H438.756V198.051H433.156V191.785ZM433.156 198.051H438.756V204.318H433.156V198.051ZM433.156 204.318H438.756V210.585H433.156V204.318ZM427.556 204.318H433.156V210.585H427.556V204.318ZM427.556 198.051H433.156V204.318H427.556V198.051ZM427.556 191.785H433.156V198.051H427.556V191.785ZM427.556 185.518H433.156V191.785H427.556V185.518ZM427.556 179.251H433.156V185.518H427.556V179.251ZM427.556 172.985H433.156V179.251H427.556V172.985ZM427.556 166.718H433.156V172.985H427.556V166.718Z" fill="black"/>
<path d="M488 141.651H493.2V147.918H488V141.651ZM493.2 141.651H498.4V147.918H493.2V141.651ZM493.2 147.918H498.4V154.185H493.2V147.918ZM493.2 154.185H498.4V160.451H493.2V154.185ZM493.2 160.451H498.4V166.718H493.2V160.451ZM493.2 166.718H498.4V172.985H493.2V166.718ZM498.4 160.451H503.6V166.718H498.4V160.451ZM498.4 154.185H503.6V160.451H498.4V154.185ZM498.4 147.918H503.6V154.185H498.4V147.918ZM498.4 141.651H503.6V147.918H498.4V141.651ZM488 154.185H493.2V160.451H488V154.185ZM488 147.918H493.2V154.185H488V147.918ZM488 160.451H493.2V166.718H488V160.451ZM488 166.718H493.2V172.985H488V166.718ZM488 172.985H493.2V179.251H488V172.985ZM488 179.251H493.2V185.518H488V179.251ZM488 185.518H493.2V191.785H488V185.518ZM488 191.785H493.2V198.051H488V191.785ZM488 198.051H493.2V204.318H488V198.051ZM488 204.318H493.2V210.585H488V204.318ZM488 210.585H493.2V216.851H488V210.585ZM488 216.851H493.2V223.118H488V216.851ZM493.2 216.851H498.4V223.118H493.2V216.851ZM493.2 223.118H498.4V229.385H493.2V223.118ZM493.2 229.385H498.4V235.651H493.2V229.385ZM488 229.385H493.2V235.651H488V229.385ZM488 223.118H493.2V229.385H488V223.118ZM498.4 229.385H503.6V235.651H498.4V229.385ZM498.4 223.118H503.6V229.385H498.4V223.118ZM498.4 216.851H503.6V223.118H498.4V216.851ZM498.4 210.585H503.6V216.851H498.4V210.585ZM498.4 204.318H503.6V210.585H498.4V204.318ZM498.4 198.051H503.6V204.318H498.4V198.051ZM498.4 191.785H503.6V198.051H498.4V191.785ZM493.2 191.785H498.4V198.051H493.2V191.785ZM493.2 185.518H498.4V191.785H493.2V185.518ZM493.2 179.251H498.4V185.518H493.2V179.251ZM493.2 172.985H498.4V179.251H493.2V172.985ZM498.4 166.718H503.6V172.985H498.4V166.718ZM498.4 172.985H503.6V179.251H498.4V172.985ZM498.4 179.251H503.6V185.518H498.4V179.251ZM498.4 185.518H503.6V191.785H498.4V185.518ZM493.2 198.051H498.4V204.318H493.2V198.051ZM493.2 204.318H498.4V210.585H493.2V204.318ZM493.2 210.585H498.4V216.851H493.2V210.585ZM560.8 141.651H566V147.918H560.8V141.651ZM560.8 147.918H566V154.185H560.8V147.918ZM560.8 154.185H566V160.451H560.8V154.185ZM560.8 160.451H566V166.718H560.8V160.451ZM560.8 166.718H566V172.985H560.8V166.718ZM560.8 172.985H566V179.251H560.8V172.985ZM560.8 179.251H566V185.518H560.8V179.251ZM560.8 185.518H566V191.785H560.8V185.518ZM560.8 191.785H566V198.051H560.8V191.785ZM560.8 198.051H566V204.318H560.8V198.051ZM560.8 204.318H566V210.585H560.8V204.318ZM560.8 210.585H566V216.851H560.8V210.585ZM560.8 216.851H566V223.118H560.8V216.851ZM560.8 223.118H566V229.385H560.8V223.118ZM560.8 229.385H566V235.651H560.8V229.385ZM555.6 229.385H560.8V235.651H555.6V229.385ZM550.4 223.118H555.6V229.385H550.4V223.118ZM550.4 216.851H555.6V223.118H550.4V216.851ZM550.4 229.385H555.6V235.651H550.4V229.385ZM555.6 223.118H560.8V229.385H555.6V223.118ZM555.6 216.851H560.8V223.118H555.6V216.851ZM555.6 210.585H560.8V216.851H555.6V210.585ZM555.6 204.318H560.8V210.585H555.6V204.318ZM555.6 198.051H560.8V204.318H555.6V198.051ZM555.6 191.785H560.8V198.051H555.6V191.785ZM555.6 185.518H560.8V191.785H555.6V185.518ZM555.6 179.251H560.8V185.518H555.6V179.251ZM555.6 172.985H560.8V179.251H555.6V172.985ZM555.6 166.718H560.8V172.985H555.6V166.718ZM555.6 160.451H560.8V166.718H555.6V160.451ZM555.6 154.185H560.8V160.451H555.6V154.185ZM555.6 147.918H560.8V154.185H555.6V147.918ZM555.6 141.651H560.8V147.918H555.6V141.651ZM550.4 141.651H555.6V147.918H550.4V141.651ZM550.4 147.918H555.6V154.185H550.4V147.918ZM550.4 154.185H555.6V160.451H550.4V154.185ZM550.4 160.451H555.6V166.718H550.4V160.451ZM550.4 172.985H555.6V179.251H550.4V172.985ZM550.4 179.251H555.6V185.518H550.4V179.251ZM550.4 185.518H555.6V191.785H550.4V185.518ZM550.4 191.785H555.6V198.051H550.4V191.785ZM550.4 210.585H555.6V216.851H550.4V210.585ZM550.4 204.318H555.6V210.585H550.4V204.318ZM550.4 198.051H555.6V204.318H550.4V198.051ZM550.4 166.718H555.6V172.985H550.4V166.718ZM503.6 147.918H508.8V154.185H503.6V147.918ZM503.6 154.185H508.8V160.451H503.6V154.185ZM503.6 160.451H508.8V166.718H503.6V160.451ZM503.6 166.718H508.8V172.985H503.6V166.718ZM503.6 172.985H508.8V179.251H503.6V172.985ZM508.8 154.185H514V160.451H508.8V154.185ZM508.8 160.451H514V166.718H508.8V160.451ZM508.8 166.718H514V172.985H508.8V166.718ZM508.8 172.985H514V179.251H508.8V172.985ZM508.8 179.251H514V185.518H508.8V179.251ZM514 160.451H519.2V166.718H514V160.451ZM514 166.718H519.2V172.985H514V166.718ZM514 172.985H519.2V179.251H514V172.985ZM514 179.251H519.2V185.518H514V179.251ZM514 185.518H519.2V191.785H514V185.518ZM519.2 166.718H524.4V172.985H519.2V166.718ZM519.2 172.985H524.4V179.251H519.2V172.985ZM519.2 179.251H524.4V185.518H519.2V179.251ZM519.2 185.518H524.4V191.785H519.2V185.518ZM519.2 191.785H524.4V198.051H519.2V191.785ZM524.4 172.985H529.6V179.251H524.4V172.985ZM524.4 179.251H529.6V185.518H524.4V179.251ZM524.4 185.518H529.6V191.785H524.4V185.518ZM529.6 166.718H534.8V172.985H529.6V166.718ZM529.6 172.985H534.8V179.251H529.6V172.985ZM529.6 179.251H534.8V185.518H529.6V179.251ZM534.8 160.451H540V166.718H534.8V160.451ZM534.8 166.718H540V172.985H534.8V166.718ZM534.8 172.985H540V179.251H534.8V172.985ZM545.2 147.918H550.4V154.185H545.2V147.918ZM545.2 154.185H550.4V160.451H545.2V154.185ZM545.2 160.451H550.4V166.718H545.2V160.451ZM545.2 166.718H550.4V172.985H545.2V166.718ZM545.2 172.985H550.4V179.251H545.2V172.985ZM540 154.185H545.2V160.451H540V154.185ZM540 160.451H545.2V166.718H540V160.451ZM540 166.718H545.2V172.985H540V166.718ZM540 172.985H545.2V179.251H540V172.985ZM540 179.251H545.2V185.518H540V179.251ZM534.8 179.251H540V185.518H534.8V179.251ZM534.8 185.518H540V191.785H534.8V185.518ZM529.6 185.518H534.8V191.785H529.6V185.518ZM529.6 191.785H534.8V198.051H529.6V191.785ZM524.4 191.785H529.6V198.051H524.4V191.785ZM524.4 198.051H529.6V204.318H524.4V198.051Z" fill="black"/>
</svg>
